<?xml version="1.0" encoding="UTF-8" standalone="no" ?>
<!DOCTYPE svg PUBLIC "-//W3C//DTD SVG 1.1//EN" "http://www.w3.org/Graphics/SVG/1.1/DTD/svg11.dtd">
<svg xmlns="http://www.w3.org/2000/svg" xmlns:xlink="http://www.w3.org/1999/xlink" version="1.1" width="1024" height="512" viewBox="0 0 1024 512" xml:space="preserve">
<desc>Created with Fabric.js 5.2.4</desc>
<defs>
</defs>
<g transform="matrix(1 0 0 1 512 256)" id="a3e763b3-51b8-4768-b285-8e1c565005cc"  >
<rect style="stroke: none; stroke-width: 1; stroke-dasharray: none; stroke-linecap: butt; stroke-dashoffset: 0; stroke-linejoin: miter; stroke-miterlimit: 4; fill: rgb(255,255,255); fill-rule: nonzero; opacity: 1; visibility: hidden;" vector-effect="non-scaling-stroke"  x="-512" y="-256" rx="0" ry="0" width="1024" height="512" />
</g>
<g transform="matrix(Infinity NaN NaN Infinity 0 0)" id="6b255790-0b48-4df4-afe3-01475059c75e"  >
</g>
<g transform="matrix(2.95 0 0 2.59 513.37 246)"  >
<g style="" vector-effect="non-scaling-stroke"   >
		<g transform="matrix(1.33 0 0 1.33 -85.31 -33.34)"  >
<path style="stroke: none; stroke-width: 1; stroke-dasharray: none; stroke-linecap: butt; stroke-dashoffset: 0; stroke-linejoin: miter; stroke-miterlimit: 4; fill: rgb(0,0,0); fill-rule: nonzero; opacity: 1;" vector-effect="non-scaling-stroke"  transform=" translate(-18.31, 17.68)" d="M 2.15625 -13.046875 C 1.519531 -15.410156 1.367188 -17.75 1.703125 -20.0625 C 2.035156 -22.382812 2.773438 -24.535156 3.921875 -26.515625 C 5.078125 -28.503906 6.570312 -30.222656 8.40625 -31.671875 C 10.238281 -33.117188 12.335938 -34.160156 14.703125 -34.796875 C 17.003906 -35.429688 19.257812 -35.597656 21.46875 -35.296875 C 23.6875 -34.992188 25.769531 -34.316406 27.71875 -33.265625 C 29.675781 -32.222656 31.367188 -30.851562 32.796875 -29.15625 L 31.65625 -24.75 L 31.203125 -24.75 C 30.429688 -26.3125 29.476562 -27.769531 28.34375 -29.125 C 27.21875 -30.476562 25.945312 -31.632812 24.53125 -32.59375 C 23.113281 -33.5625 21.585938 -34.21875 19.953125 -34.5625 C 18.316406 -34.914062 16.597656 -34.863281 14.796875 -34.40625 C 12.660156 -33.832031 10.882812 -32.820312 9.46875 -31.375 C 8.050781 -29.925781 6.976562 -28.222656 6.25 -26.265625 C 5.519531 -24.316406 5.113281 -22.273438 5.03125 -20.140625 C 4.945312 -18.015625 5.171875 -15.96875 5.703125 -14 C 6.460938 -11.195312 7.617188 -8.863281 9.171875 -7 C 10.722656 -5.132812 12.503906 -3.71875 14.515625 -2.75 C 16.535156 -1.78125 18.617188 -1.253906 20.765625 -1.171875 C 22.921875 -1.085938 24.960938 -1.445312 26.890625 -2.25 C 28.828125 -3.050781 30.488281 -4.273438 31.875 -5.921875 C 33.257812 -7.578125 34.203125 -9.632812 34.703125 -12.09375 L 35.09375 -12 C 34.632812 -9.664062 33.78125 -7.671875 32.53125 -6.015625 C 31.28125 -4.367188 29.769531 -3.050781 28 -2.0625 C 26.226562 -1.082031 24.316406 -0.4375 22.265625 -0.125 C 20.222656 0.1875 18.160156 0.15625 16.078125 -0.21875 C 13.992188 -0.601562 12.015625 -1.328125 10.140625 -2.390625 C 8.273438 -3.460938 6.644531 -4.878906 5.25 -6.640625 C 3.851562 -8.410156 2.820312 -10.546875 2.15625 -13.046875 Z M 2.15625 -13.046875" stroke-linecap="round" />
</g>
		<g transform="matrix(1.33 0 0 1.33 -45.13 -25.7)"  >
<path style="stroke: none; stroke-width: 1; stroke-dasharray: none; stroke-linecap: butt; stroke-dashoffset: 0; stroke-linejoin: miter; stroke-miterlimit: 4; fill: rgb(0,0,0); fill-rule: nonzero; opacity: 1;" vector-effect="non-scaling-stroke"  transform=" translate(-11.85, 11.95)" d="M 22.453125 -0.453125 L 22.453125 0 L 17.84375 0 L 17.84375 -12.90625 C 17.613281 -11.40625 17.332031 -10.035156 17 -8.796875 C 16.664062 -7.566406 16.28125 -6.46875 15.84375 -5.5 C 15.414062 -4.601562 14.875 -3.710938 14.21875 -2.828125 C 13.570312 -1.941406 12.816406 -1.210938 11.953125 -0.640625 C 11.085938 -0.078125 10.101562 0.203125 9 0.203125 C 7.164062 0.203125 5.78125 -0.269531 4.84375 -1.21875 C 3.914062 -2.175781 3.273438 -3.382812 2.921875 -4.84375 C 2.578125 -6.3125 2.40625 -7.796875 2.40625 -9.296875 L 2.40625 -19.796875 C 2.40625 -21.460938 2.253906 -22.519531 1.953125 -22.96875 C 1.648438 -23.425781 1.414062 -23.65625 1.25 -23.65625 L 1.25 -24.09375 L 5.90625 -24.09375 L 5.90625 -9.296875 C 5.90625 -8.703125 5.9375 -7.988281 6 -7.15625 C 6.0625 -6.320312 6.203125 -5.476562 6.421875 -4.625 C 6.640625 -3.769531 6.957031 -3.019531 7.375 -2.375 C 7.789062 -1.726562 8.347656 -1.285156 9.046875 -1.046875 C 10.015625 -0.742188 10.914062 -0.832031 11.75 -1.3125 C 12.582031 -1.800781 13.320312 -2.460938 13.96875 -3.296875 C 14.625 -4.128906 15.117188 -4.914062 15.453125 -5.65625 C 16.179688 -7.25 16.757812 -9.210938 17.1875 -11.546875 C 17.625 -13.878906 17.84375 -16.628906 17.84375 -19.796875 C 17.84375 -21.460938 17.691406 -22.519531 17.390625 -22.96875 C 17.097656 -23.425781 16.867188 -23.65625 16.703125 -23.65625 L 16.703125 -24.09375 L 21.296875 -24.09375 L 21.296875 -4.296875 C 21.296875 -2.660156 21.453125 -1.609375 21.765625 -1.140625 C 22.085938 -0.679688 22.316406 -0.453125 22.453125 -0.453125 Z M 22.453125 -0.453125" stroke-linecap="round" />
</g>
		<g transform="matrix(1.33 0 0 1.33 -23.77 -33.83)"  >
<path style="stroke: none; stroke-width: 1; stroke-dasharray: none; stroke-linecap: butt; stroke-dashoffset: 0; stroke-linejoin: miter; stroke-miterlimit: 4; fill: rgb(0,0,0); fill-rule: nonzero; opacity: 1;" vector-effect="non-scaling-stroke"  transform=" translate(-4.17, 18.05)" d="M 7.09375 -0.453125 L 7.09375 0 L 1.296875 0 L 1.296875 -0.453125 C 1.460938 -0.453125 1.695312 -0.679688 2 -1.140625 C 2.300781 -1.609375 2.453125 -2.660156 2.453125 -4.296875 L 2.453125 -31.796875 C 2.316406 -32.660156 2.140625 -33.226562 1.921875 -33.5 C 1.703125 -33.769531 1.53125 -33.90625 1.40625 -33.90625 L 1.25 -34.34375 L 5.953125 -36.09375 L 5.953125 -4.296875 C 5.953125 -2.660156 6.109375 -1.609375 6.421875 -1.140625 C 6.742188 -0.679688 6.96875 -0.453125 7.09375 -0.453125 Z M 7.09375 -0.453125" stroke-linecap="round" />
</g>
		<g transform="matrix(1.33 0 0 1.33 -4.71 -30.27)"  >
<path style="stroke: none; stroke-width: 1; stroke-dasharray: none; stroke-linecap: butt; stroke-dashoffset: 0; stroke-linejoin: miter; stroke-miterlimit: 4; fill: rgb(0,0,0); fill-rule: nonzero; opacity: 1;" vector-effect="non-scaling-stroke"  transform=" translate(-10.13, 15.38)" d="M 1.25 -23.75 L 1.25 -24.09375 C 1.445312 -24.09375 1.800781 -24.148438 2.3125 -24.265625 C 2.832031 -24.390625 3.382812 -24.660156 3.96875 -25.078125 C 4.550781 -25.492188 5.039062 -26.164062 5.4375 -27.09375 C 5.84375 -28.03125 6.046875 -29.316406 6.046875 -30.953125 L 9.546875 -30.953125 C 9.546875 -28.953125 9.132812 -27.410156 8.3125 -26.328125 C 7.5 -25.242188 6.3125 -24.5 4.75 -24.09375 L 12.25 -24.09375 L 12.25 -23.75 L 7.90625 -23.75 L 7.90625 -9.296875 C 7.90625 -8.703125 7.9375 -7.988281 8 -7.15625 C 8.0625 -6.320312 8.203125 -5.476562 8.421875 -4.625 C 8.640625 -3.769531 8.957031 -3.019531 9.375 -2.375 C 9.789062 -1.726562 10.347656 -1.285156 11.046875 -1.046875 C 12.015625 -0.742188 12.914062 -0.832031 13.75 -1.3125 C 14.582031 -1.800781 15.320312 -2.460938 15.96875 -3.296875 C 16.625 -4.128906 17.117188 -4.914062 17.453125 -5.65625 C 17.648438 -6.113281 17.847656 -6.601562 18.046875 -7.125 C 18.242188 -7.644531 18.410156 -8.1875 18.546875 -8.75 L 19 -8.75 C 18.832031 -8.144531 18.65625 -7.566406 18.46875 -7.015625 C 18.289062 -6.472656 18.082031 -5.96875 17.84375 -5.5 C 17.445312 -4.601562 16.921875 -3.710938 16.265625 -2.828125 C 15.617188 -1.941406 14.851562 -1.210938 13.96875 -0.640625 C 13.09375 -0.078125 12.101562 0.203125 11 0.203125 C 9.195312 0.203125 7.820312 -0.269531 6.875 -1.21875 C 5.925781 -2.175781 5.273438 -3.382812 4.921875 -4.84375 C 4.578125 -6.3125 4.40625 -7.796875 4.40625 -9.296875 L 4.40625 -20.703125 C 4.40625 -21.535156 4.117188 -22.25 3.546875 -22.84375 C 2.984375 -23.445312 2.21875 -23.75 1.25 -23.75 Z M 1.25 -23.75" stroke-linecap="round" />
</g>
		<g transform="matrix(1.33 0 0 1.33 24.59 -25.7)"  >
<path style="stroke: none; stroke-width: 1; stroke-dasharray: none; stroke-linecap: butt; stroke-dashoffset: 0; stroke-linejoin: miter; stroke-miterlimit: 4; fill: rgb(0,0,0); fill-rule: nonzero; opacity: 1;" vector-effect="non-scaling-stroke"  transform=" translate(-11.85, 11.95)" d="M 22.453125 -0.453125 L 22.453125 0 L 17.84375 0 L 17.84375 -12.90625 C 17.613281 -11.40625 17.332031 -10.035156 17 -8.796875 C 16.664062 -7.566406 16.28125 -6.46875 15.84375 -5.5 C 15.414062 -4.601562 14.875 -3.710938 14.21875 -2.828125 C 13.570312 -1.941406 12.816406 -1.210938 11.953125 -0.640625 C 11.085938 -0.078125 10.101562 0.203125 9 0.203125 C 7.164062 0.203125 5.78125 -0.269531 4.84375 -1.21875 C 3.914062 -2.175781 3.273438 -3.382812 2.921875 -4.84375 C 2.578125 -6.3125 2.40625 -7.796875 2.40625 -9.296875 L 2.40625 -19.796875 C 2.40625 -21.460938 2.253906 -22.519531 1.953125 -22.96875 C 1.648438 -23.425781 1.414062 -23.65625 1.25 -23.65625 L 1.25 -24.09375 L 5.90625 -24.09375 L 5.90625 -9.296875 C 5.90625 -8.703125 5.9375 -7.988281 6 -7.15625 C 6.0625 -6.320312 6.203125 -5.476562 6.421875 -4.625 C 6.640625 -3.769531 6.957031 -3.019531 7.375 -2.375 C 7.789062 -1.726562 8.347656 -1.285156 9.046875 -1.046875 C 10.015625 -0.742188 10.914062 -0.832031 11.75 -1.3125 C 12.582031 -1.800781 13.320312 -2.460938 13.96875 -3.296875 C 14.625 -4.128906 15.117188 -4.914062 15.453125 -5.65625 C 16.179688 -7.25 16.757812 -9.210938 17.1875 -11.546875 C 17.625 -13.878906 17.84375 -16.628906 17.84375 -19.796875 C 17.84375 -21.460938 17.691406 -22.519531 17.390625 -22.96875 C 17.097656 -23.425781 16.867188 -23.65625 16.703125 -23.65625 L 16.703125 -24.09375 L 21.296875 -24.09375 L 21.296875 -4.296875 C 21.296875 -2.660156 21.453125 -1.609375 21.765625 -1.140625 C 22.085938 -0.679688 22.316406 -0.453125 22.453125 -0.453125 Z M 22.453125 -0.453125" stroke-linecap="round" />
</g>
		<g transform="matrix(1.33 0 0 1.33 54.82 -25.97)"  >
<path style="stroke: none; stroke-width: 1; stroke-dasharray: none; stroke-linecap: butt; stroke-dashoffset: 0; stroke-linejoin: miter; stroke-miterlimit: 4; fill: rgb(0,0,0); fill-rule: nonzero; opacity: 1;" vector-effect="non-scaling-stroke"  transform=" translate(-10.83, 12.15)" d="M 19.25 -19.296875 C 19.519531 -18.035156 19.851562 -17.453125 20.25 -17.546875 L 20.40625 -17.15625 L 17.703125 -16.09375 L 17.546875 -16.046875 L 14.953125 -15.046875 L 14.953125 -15.5 C 15.316406 -15.726562 15.566406 -16.101562 15.703125 -16.625 C 15.835938 -17.144531 15.90625 -17.632812 15.90625 -18.09375 C 15.769531 -19.226562 15.492188 -20.300781 15.078125 -21.3125 C 14.660156 -22.332031 13.898438 -22.910156 12.796875 -23.046875 C 10.960938 -23.316406 9.550781 -23.132812 8.5625 -22.5 C 7.582031 -21.863281 6.910156 -20.976562 6.546875 -19.84375 C 6.179688 -18.71875 5.96875 -17.535156 5.90625 -16.296875 L 5.90625 -4.296875 C 5.90625 -2.660156 6.0625 -1.609375 6.375 -1.140625 C 6.6875 -0.679688 6.910156 -0.453125 7.046875 -0.453125 L 7.046875 0 L 1.25 0 L 1.25 -0.453125 C 1.414062 -0.453125 1.65625 -0.679688 1.96875 -1.140625 C 2.289062 -1.609375 2.453125 -2.660156 2.453125 -4.296875 L 2.453125 -19.796875 C 2.453125 -21.460938 2.289062 -22.519531 1.96875 -22.96875 C 1.65625 -23.425781 1.414062 -23.65625 1.25 -23.65625 L 1.25 -24.09375 L 5.90625 -24.09375 L 5.90625 -19.34375 C 6.269531 -20.78125 6.96875 -21.960938 8 -22.890625 C 9.03125 -23.828125 10.664062 -24.296875 12.90625 -24.296875 C 14.800781 -24.296875 16.253906 -23.828125 17.265625 -22.890625 C 18.285156 -21.960938 18.945312 -20.765625 19.25 -19.296875 Z M 19.25 -19.296875" stroke-linecap="round" />
</g>
		<g transform="matrix(1.33 0 0 1.33 86.18 -25.8)"  >
<path style="stroke: none; stroke-width: 1; stroke-dasharray: none; stroke-linecap: butt; stroke-dashoffset: 0; stroke-linejoin: miter; stroke-miterlimit: 4; fill: rgb(0,0,0); fill-rule: nonzero; opacity: 1;" vector-effect="non-scaling-stroke"  transform=" translate(-12.7, 12.02)" d="M 24.09375 -0.453125 L 24.09375 0 L 19.5 0 L 19.5 -14.40625 C 19.5 -15.300781 19.457031 -16.289062 19.375 -17.375 C 19.289062 -18.457031 19.082031 -19.5 18.75 -20.5 C 18.414062 -21.5 17.90625 -22.316406 17.21875 -22.953125 C 16.539062 -23.585938 15.601562 -23.90625 14.40625 -23.90625 C 12.800781 -23.90625 11.484375 -23.617188 10.453125 -23.046875 C 9.421875 -22.484375 8.710938 -21.867188 8.328125 -21.203125 C 7.941406 -20.535156 7.898438 -20.019531 8.203125 -19.65625 C 8.503906 -19.320312 9.085938 -19.128906 9.953125 -19.078125 C 10.816406 -19.023438 11.664062 -18.832031 12.5 -18.5 C 13.601562 -18.0625 14.476562 -17.375 15.125 -16.4375 C 15.769531 -15.507812 16.226562 -14.445312 16.5 -13.25 C 16.769531 -12.050781 16.867188 -10.847656 16.796875 -9.640625 C 16.734375 -8.441406 16.5 -7.363281 16.09375 -6.40625 C 15.363281 -4.46875 14.238281 -2.863281 12.71875 -1.59375 C 11.207031 -0.332031 9.566406 0.265625 7.796875 0.203125 C 6.128906 0.128906 4.78125 -0.320312 3.75 -1.15625 C 2.71875 -1.988281 2.007812 -3.046875 1.625 -4.328125 C 1.238281 -5.609375 1.195312 -6.957031 1.5 -8.375 C 1.800781 -9.789062 2.441406 -11.140625 3.421875 -12.421875 C 4.410156 -13.703125 5.757812 -14.769531 7.46875 -15.625 C 9.1875 -16.476562 11.28125 -16.953125 13.75 -17.046875 C 13.8125 -17.078125 13.925781 -17.09375 14.09375 -17.09375 C 13.59375 -17.53125 13.007812 -17.882812 12.34375 -18.15625 C 11.582031 -18.488281 10.722656 -18.660156 9.765625 -18.671875 C 8.816406 -18.691406 7.976562 -18.660156 7.25 -18.578125 C 6.519531 -18.492188 6.050781 -18.414062 5.84375 -18.34375 C 5.75 -19.050781 6.039062 -19.863281 6.71875 -20.78125 C 7.40625 -21.695312 8.40625 -22.503906 9.71875 -23.203125 C 11.039062 -23.898438 12.601562 -24.25 14.40625 -24.25 C 16.570312 -24.25 18.269531 -23.820312 19.5 -22.96875 C 20.726562 -22.125 21.609375 -20.957031 22.140625 -19.46875 C 22.679688 -17.988281 22.953125 -16.300781 22.953125 -14.40625 L 22.953125 -4.296875 C 22.953125 -2.660156 23.109375 -1.609375 23.421875 -1.140625 C 23.742188 -0.679688 23.96875 -0.453125 24.09375 -0.453125 Z M 14.453125 -16.703125 C 12.679688 -16.703125 11.050781 -16.390625 9.5625 -15.765625 C 8.082031 -15.148438 6.898438 -14.226562 6.015625 -13 C 5.140625 -11.769531 4.703125 -10.1875 4.703125 -8.25 C 4.703125 -7.3125 4.84375 -6.382812 5.125 -5.46875 C 5.40625 -4.550781 5.863281 -3.757812 6.5 -3.09375 C 7.132812 -2.425781 7.953125 -1.992188 8.953125 -1.796875 C 10.015625 -1.597656 10.992188 -1.710938 11.890625 -2.140625 C 12.796875 -2.578125 13.582031 -3.1875 14.25 -3.96875 C 14.914062 -4.757812 15.429688 -5.601562 15.796875 -6.5 C 16.234375 -7.5625 16.472656 -8.71875 16.515625 -9.96875 C 16.566406 -11.21875 16.425781 -12.4375 16.09375 -13.625 C 15.757812 -14.8125 15.210938 -15.835938 14.453125 -16.703125 Z M 14.453125 -16.703125" stroke-linecap="round" />
</g>
		<g transform="matrix(1.33 0 0 1.33 108.6 -33.83)"  >
<path style="stroke: none; stroke-width: 1; stroke-dasharray: none; stroke-linecap: butt; stroke-dashoffset: 0; stroke-linejoin: miter; stroke-miterlimit: 4; fill: rgb(0,0,0); fill-rule: nonzero; opacity: 1;" vector-effect="non-scaling-stroke"  transform=" translate(-4.17, 18.05)" d="M 7.09375 -0.453125 L 7.09375 0 L 1.296875 0 L 1.296875 -0.453125 C 1.460938 -0.453125 1.695312 -0.679688 2 -1.140625 C 2.300781 -1.609375 2.453125 -2.660156 2.453125 -4.296875 L 2.453125 -31.796875 C 2.316406 -32.660156 2.140625 -33.226562 1.921875 -33.5 C 1.703125 -33.769531 1.53125 -33.90625 1.40625 -33.90625 L 1.25 -34.34375 L 5.953125 -36.09375 L 5.953125 -4.296875 C 5.953125 -2.660156 6.109375 -1.609375 6.421875 -1.140625 C 6.742188 -0.679688 6.96875 -0.453125 7.09375 -0.453125 Z M 7.09375 -0.453125" stroke-linecap="round" />
</g>
		<g transform="matrix(1.33 0 0 1.33 -156.48 -18.31)" clip-path="url(#CLIPPATH_3)"  >
<clipPath id="CLIPPATH_3" >
	<path transform="matrix(1 0 0 1 0 0) translate(-75.3, -156.08)" id="b8b44558ce" clip-path="url(#undefined)" d="M 75.300781 149.992188 L 77.234375 154.140625 L 81.386719 156.078125 L 77.234375 158.015625 L 75.300781 162.167969 L 73.363281 158.015625 L 69.210938 156.078125 L 73.363281 154.140625 Z M 75.300781 149.992188" stroke-linecap="round" />
</clipPath>
<path style="stroke: none; stroke-width: 1; stroke-dasharray: none; stroke-linecap: butt; stroke-dashoffset: 0; stroke-linejoin: miter; stroke-miterlimit: 4; fill: rgb(50,24,231); fill-rule: nonzero; opacity: 1;" vector-effect="non-scaling-stroke"  transform=" translate(-75.3, -156.08)" d="M 69.210938 149.992188 L 81.386719 149.992188 L 81.386719 162.167969 L 69.210938 162.167969 Z M 69.210938 149.992188" stroke-linecap="round" />
</g>
		<g transform="matrix(1.33 0 0 1.33 -109.81 18.81)"  >
<path style="stroke: none; stroke-width: 1; stroke-dasharray: none; stroke-linecap: butt; stroke-dashoffset: 0; stroke-linejoin: miter; stroke-miterlimit: 4; fill: rgb(0,0,0); fill-rule: nonzero; opacity: 1;" vector-effect="non-scaling-stroke"  transform=" translate(-16.73, 20.36)" d="M 31.71875 -40.71875 L 31.71875 -40.1875 C 31.570312 -40.1875 31.3125 -39.925781 30.9375 -39.40625 C 30.570312 -38.882812 30.390625 -37.660156 30.390625 -35.734375 L 30.390625 -4.984375 C 30.390625 -3.085938 30.570312 -1.867188 30.9375 -1.328125 C 31.3125 -0.785156 31.570312 -0.515625 31.71875 -0.515625 L 31.71875 0 L 24.875 0 L 24.875 -0.515625 C 25.070312 -0.515625 25.34375 -0.785156 25.6875 -1.328125 C 26.039062 -1.867188 26.21875 -3.085938 26.21875 -4.984375 L 26.21875 -23.890625 L 7.1875 -23.890625 L 7.1875 -4.984375 C 7.1875 -3.085938 7.367188 -1.867188 7.734375 -1.328125 C 8.109375 -0.785156 8.375 -0.515625 8.53125 -0.515625 L 8.53125 0 L 1.734375 0 L 1.734375 -0.515625 C 1.929688 -0.515625 2.203125 -0.785156 2.546875 -1.328125 C 2.898438 -1.867188 3.078125 -3.085938 3.078125 -4.984375 L 3.078125 -35.734375 C 3.078125 -37.660156 2.898438 -38.882812 2.546875 -39.40625 C 2.203125 -39.925781 1.929688 -40.1875 1.734375 -40.1875 L 1.734375 -40.71875 L 8.53125 -40.71875 L 8.53125 -40.1875 C 8.375 -40.1875 8.109375 -39.925781 7.734375 -39.40625 C 7.367188 -38.882812 7.1875 -37.660156 7.1875 -35.734375 L 7.1875 -24.421875 L 26.21875 -24.421875 L 26.21875 -35.734375 C 26.21875 -37.660156 26.039062 -38.882812 25.6875 -39.40625 C 25.34375 -39.925781 25.070312 -40.1875 24.875 -40.1875 L 24.875 -40.71875 Z M 31.71875 -40.71875" stroke-linecap="round" />
</g>
		<g transform="matrix(1.33 0 0 1.33 -67.86 27.37)"  >
<path style="stroke: none; stroke-width: 1; stroke-dasharray: none; stroke-linecap: butt; stroke-dashoffset: 0; stroke-linejoin: miter; stroke-miterlimit: 4; fill: rgb(0,0,0); fill-rule: nonzero; opacity: 1;" vector-effect="non-scaling-stroke"  transform=" translate(-14.73, 13.94)" d="M 27.953125 -0.515625 L 27.953125 0 L 22.625 0 L 22.625 -16.703125 C 22.625 -17.742188 22.570312 -18.894531 22.46875 -20.15625 C 22.375 -21.414062 22.132812 -22.625 21.75 -23.78125 C 21.363281 -24.9375 20.773438 -25.878906 19.984375 -26.609375 C 19.191406 -27.347656 18.097656 -27.71875 16.703125 -27.71875 C 14.847656 -27.71875 13.320312 -27.390625 12.125 -26.734375 C 10.925781 -26.078125 10.101562 -25.363281 9.65625 -24.59375 C 9.207031 -23.820312 9.160156 -23.222656 9.515625 -22.796875 C 9.859375 -22.410156 10.53125 -22.1875 11.53125 -22.125 C 12.539062 -22.070312 13.53125 -21.847656 14.5 -21.453125 C 15.769531 -20.953125 16.78125 -20.160156 17.53125 -19.078125 C 18.289062 -17.992188 18.828125 -16.753906 19.140625 -15.359375 C 19.453125 -13.972656 19.566406 -12.582031 19.484375 -11.1875 C 19.410156 -9.800781 19.140625 -8.546875 18.671875 -7.421875 C 17.828125 -5.179688 16.523438 -3.328125 14.765625 -1.859375 C 13.003906 -0.390625 11.097656 0.304688 9.046875 0.234375 C 7.109375 0.148438 5.539062 -0.367188 4.34375 -1.328125 C 3.144531 -2.296875 2.320312 -3.523438 1.875 -5.015625 C 1.4375 -6.503906 1.390625 -8.070312 1.734375 -9.71875 C 2.085938 -11.363281 2.832031 -12.925781 3.96875 -14.40625 C 5.113281 -15.894531 6.679688 -17.132812 8.671875 -18.125 C 10.660156 -19.113281 13.085938 -19.664062 15.953125 -19.78125 C 16.023438 -19.820312 16.160156 -19.84375 16.359375 -19.84375 C 15.773438 -20.34375 15.097656 -20.742188 14.328125 -21.046875 C 13.429688 -21.441406 12.429688 -21.644531 11.328125 -21.65625 C 10.234375 -21.675781 9.257812 -21.640625 8.40625 -21.546875 C 7.5625 -21.453125 7.019531 -21.363281 6.78125 -21.28125 C 6.664062 -22.09375 7.003906 -23.03125 7.796875 -24.09375 C 8.585938 -25.15625 9.75 -26.09375 11.28125 -26.90625 C 12.8125 -27.71875 14.617188 -28.125 16.703125 -28.125 C 19.210938 -28.125 21.179688 -27.628906 22.609375 -26.640625 C 24.046875 -25.660156 25.070312 -24.3125 25.6875 -22.59375 C 26.3125 -20.875 26.625 -18.910156 26.625 -16.703125 L 26.625 -4.984375 C 26.625 -3.085938 26.804688 -1.867188 27.171875 -1.328125 C 27.535156 -0.785156 27.796875 -0.515625 27.953125 -0.515625 Z M 16.765625 -19.375 C 14.710938 -19.375 12.828125 -19.015625 11.109375 -18.296875 C 9.390625 -17.578125 8.015625 -16.503906 6.984375 -15.078125 C 5.960938 -13.648438 5.453125 -11.8125 5.453125 -9.5625 C 5.453125 -8.488281 5.613281 -7.414062 5.9375 -6.34375 C 6.269531 -5.28125 6.800781 -4.363281 7.53125 -3.59375 C 8.269531 -2.820312 9.21875 -2.320312 10.375 -2.09375 C 11.613281 -1.851562 12.753906 -1.984375 13.796875 -2.484375 C 14.847656 -2.992188 15.757812 -3.703125 16.53125 -4.609375 C 17.300781 -5.515625 17.898438 -6.492188 18.328125 -7.546875 C 18.828125 -8.773438 19.101562 -10.113281 19.15625 -11.5625 C 19.21875 -13.019531 19.054688 -14.429688 18.671875 -15.796875 C 18.285156 -17.171875 17.648438 -18.363281 16.765625 -19.375 Z M 16.765625 -19.375" stroke-linecap="round" />
</g>
		<g transform="matrix(1.33 0 0 1.33 -31.55 27.16)"  >
<path style="stroke: none; stroke-width: 1; stroke-dasharray: none; stroke-linecap: butt; stroke-dashoffset: 0; stroke-linejoin: miter; stroke-miterlimit: 4; fill: rgb(0,0,0); fill-rule: nonzero; opacity: 1;" vector-effect="non-scaling-stroke"  transform=" translate(-12.55, 14.09)" d="M 22.328125 -22.390625 C 22.640625 -20.921875 23.023438 -20.242188 23.484375 -20.359375 L 23.65625 -19.890625 L 20.53125 -18.671875 L 20.359375 -18.625 L 17.34375 -17.453125 L 17.34375 -17.984375 C 17.769531 -18.253906 18.054688 -18.6875 18.203125 -19.28125 C 18.359375 -19.882812 18.4375 -20.457031 18.4375 -21 C 18.289062 -22.3125 17.972656 -23.554688 17.484375 -24.734375 C 17.003906 -25.910156 16.125 -26.578125 14.84375 -26.734375 C 12.71875 -27.046875 11.082031 -26.832031 9.9375 -26.09375 C 8.800781 -25.363281 8.019531 -24.335938 7.59375 -23.015625 C 7.164062 -21.703125 6.914062 -20.332031 6.84375 -18.90625 L 6.84375 -4.984375 C 6.84375 -3.085938 7.023438 -1.867188 7.390625 -1.328125 C 7.765625 -0.785156 8.023438 -0.515625 8.171875 -0.515625 L 8.171875 0 L 1.453125 0 L 1.453125 -0.515625 C 1.640625 -0.515625 1.914062 -0.785156 2.28125 -1.328125 C 2.65625 -1.867188 2.84375 -3.085938 2.84375 -4.984375 L 2.84375 -22.96875 C 2.84375 -24.90625 2.65625 -26.132812 2.28125 -26.65625 C 1.914062 -27.175781 1.640625 -27.4375 1.453125 -27.4375 L 1.453125 -27.953125 L 6.84375 -27.953125 L 6.84375 -22.453125 C 7.269531 -24.109375 8.082031 -25.476562 9.28125 -26.5625 C 10.476562 -27.644531 12.375 -28.1875 14.96875 -28.1875 C 17.164062 -28.1875 18.851562 -27.644531 20.03125 -26.5625 C 21.21875 -25.476562 21.984375 -24.085938 22.328125 -22.390625 Z M 22.328125 -22.390625" stroke-linecap="round" />
</g>
		<g transform="matrix(1.33 0 0 1.33 15.47 27.16)"  >
<path style="stroke: none; stroke-width: 1; stroke-dasharray: none; stroke-linecap: butt; stroke-dashoffset: 0; stroke-linejoin: miter; stroke-miterlimit: 4; fill: rgb(0,0,0); fill-rule: nonzero; opacity: 1;" vector-effect="non-scaling-stroke"  transform=" translate(-22.71, 14.09)" d="M 42.625 -17.171875 L 42.625 -4.984375 C 42.625 -3.085938 42.804688 -1.867188 43.171875 -1.328125 C 43.546875 -0.785156 43.8125 -0.515625 43.96875 -0.515625 L 43.96875 0 L 37.234375 0 L 37.234375 -0.515625 C 37.429688 -0.515625 37.703125 -0.785156 38.046875 -1.328125 C 38.390625 -1.867188 38.5625 -3.085938 38.5625 -4.984375 L 38.5625 -17.171875 C 38.5625 -17.867188 38.523438 -18.695312 38.453125 -19.65625 C 38.378906 -20.625 38.210938 -21.597656 37.953125 -22.578125 C 37.703125 -23.566406 37.335938 -24.4375 36.859375 -25.1875 C 36.378906 -25.945312 35.734375 -26.460938 34.921875 -26.734375 C 33.835938 -27.117188 32.800781 -27.019531 31.8125 -26.4375 C 30.820312 -25.863281 29.957031 -25.09375 29.21875 -24.125 C 28.488281 -23.15625 27.910156 -22.226562 27.484375 -21.34375 C 26.640625 -19.53125 25.960938 -17.269531 25.453125 -14.5625 C 24.953125 -11.851562 24.703125 -8.660156 24.703125 -4.984375 C 24.703125 -3.085938 24.882812 -1.867188 25.25 -1.328125 C 25.625 -0.785156 25.890625 -0.515625 26.046875 -0.515625 L 26.046875 0 L 19.3125 0 L 19.3125 -0.515625 C 19.507812 -0.515625 19.78125 -0.785156 20.125 -1.328125 C 20.46875 -1.867188 20.640625 -3.085938 20.640625 -4.984375 L 20.640625 -17.171875 C 20.640625 -17.867188 20.601562 -18.695312 20.53125 -19.65625 C 20.457031 -20.625 20.289062 -21.597656 20.03125 -22.578125 C 19.78125 -23.566406 19.414062 -24.4375 18.9375 -25.1875 C 18.457031 -25.945312 17.8125 -26.460938 17 -26.734375 C 15.914062 -27.117188 14.878906 -27.019531 13.890625 -26.4375 C 12.898438 -25.863281 12.035156 -25.09375 11.296875 -24.125 C 10.566406 -23.15625 9.988281 -22.226562 9.5625 -21.34375 C 8.71875 -19.53125 8.039062 -17.269531 7.53125 -14.5625 C 7.03125 -11.851562 6.78125 -8.660156 6.78125 -4.984375 C 6.78125 -3.085938 6.960938 -1.867188 7.328125 -1.328125 C 7.703125 -0.785156 7.96875 -0.515625 8.125 -0.515625 L 8.125 0 L 1.453125 0 L 1.453125 -0.515625 C 1.640625 -0.515625 1.90625 -0.785156 2.25 -1.328125 C 2.601562 -1.867188 2.78125 -3.085938 2.78125 -4.984375 L 2.78125 -22.96875 C 2.78125 -24.863281 2.601562 -26.082031 2.25 -26.625 C 1.90625 -27.164062 1.640625 -27.4375 1.453125 -27.4375 L 1.453125 -27.953125 L 6.78125 -27.953125 L 6.78125 -12.9375 C 7.050781 -14.71875 7.378906 -16.320312 7.765625 -17.75 C 8.160156 -19.175781 8.609375 -20.453125 9.109375 -21.578125 C 9.609375 -22.660156 10.234375 -23.703125 10.984375 -24.703125 C 11.742188 -25.710938 12.625 -26.546875 13.625 -27.203125 C 14.632812 -27.859375 15.773438 -28.1875 17.046875 -28.1875 C 18.640625 -28.1875 19.9375 -27.867188 20.9375 -27.234375 C 21.945312 -26.597656 22.71875 -25.738281 23.25 -24.65625 C 23.789062 -23.570312 24.164062 -22.378906 24.375 -21.078125 C 24.59375 -19.785156 24.703125 -18.484375 24.703125 -17.171875 L 24.703125 -12.9375 C 24.941406 -14.71875 25.265625 -16.320312 25.671875 -17.75 C 26.078125 -19.175781 26.53125 -20.453125 27.03125 -21.578125 C 27.53125 -22.660156 28.144531 -23.703125 28.875 -24.703125 C 29.613281 -25.710938 30.492188 -26.546875 31.515625 -27.203125 C 32.546875 -27.859375 33.695312 -28.1875 34.96875 -28.1875 C 37.09375 -28.1875 38.695312 -27.632812 39.78125 -26.53125 C 40.863281 -25.425781 41.609375 -24.023438 42.015625 -22.328125 C 42.421875 -20.628906 42.625 -18.910156 42.625 -17.171875 Z M 42.625 -17.171875" stroke-linecap="round" />
</g>
		<g transform="matrix(1.33 0 0 1.33 66.68 26.91)"  >
<path style="stroke: none; stroke-width: 1; stroke-dasharray: none; stroke-linecap: butt; stroke-dashoffset: 0; stroke-linejoin: miter; stroke-miterlimit: 4; fill: rgb(0,0,0); fill-rule: nonzero; opacity: 1;" vector-effect="non-scaling-stroke"  transform=" translate(-15.71, 14.28)" d="M 1.96875 -10.609375 C 1.3125 -13.128906 1.320312 -15.585938 2 -17.984375 C 2.675781 -20.378906 3.882812 -22.472656 5.625 -24.265625 C 7.363281 -26.066406 9.488281 -27.296875 12 -27.953125 C 14.550781 -28.648438 17.023438 -28.660156 19.421875 -27.984375 C 21.828125 -27.304688 23.925781 -26.097656 25.71875 -24.359375 C 27.519531 -22.617188 28.75 -20.472656 29.40625 -17.921875 C 30.101562 -15.410156 30.101562 -12.953125 29.40625 -10.546875 C 28.707031 -8.148438 27.488281 -6.0625 25.75 -4.28125 C 24.007812 -2.507812 21.882812 -1.273438 19.375 -0.578125 C 16.863281 0.078125 14.398438 0.078125 11.984375 -0.578125 C 9.566406 -1.234375 7.46875 -2.441406 5.6875 -4.203125 C 3.90625 -5.960938 2.664062 -8.097656 1.96875 -10.609375 Z M 25.46875 -16.875 C 25.070312 -18.269531 24.46875 -19.691406 23.65625 -21.140625 C 22.851562 -22.585938 21.859375 -23.875 20.671875 -25 C 19.492188 -26.125 18.179688 -26.9375 16.734375 -27.4375 C 15.285156 -27.9375 13.75 -27.972656 12.125 -27.546875 C 10.5 -27.117188 9.191406 -26.316406 8.203125 -25.140625 C 7.222656 -23.960938 6.5 -22.597656 6.03125 -21.046875 C 5.570312 -19.503906 5.34375 -17.898438 5.34375 -16.234375 C 5.34375 -14.578125 5.535156 -13.050781 5.921875 -11.65625 C 6.304688 -10.257812 6.90625 -8.835938 7.71875 -7.390625 C 8.53125 -5.941406 9.523438 -4.65625 10.703125 -3.53125 C 11.878906 -2.414062 13.191406 -1.597656 14.640625 -1.078125 C 16.085938 -0.554688 17.625 -0.523438 19.25 -0.984375 C 20.875 -1.410156 22.1875 -2.210938 23.1875 -3.390625 C 24.195312 -4.566406 24.925781 -5.925781 25.375 -7.46875 C 25.820312 -9.019531 26.046875 -10.628906 26.046875 -12.296875 C 26.046875 -13.960938 25.851562 -15.488281 25.46875 -16.875 Z M 25.46875 -16.875" stroke-linecap="round" />
</g>
		<g transform="matrix(1.33 0 0 1.33 105.91 27.16)"  >
<path style="stroke: none; stroke-width: 1; stroke-dasharray: none; stroke-linecap: butt; stroke-dashoffset: 0; stroke-linejoin: miter; stroke-miterlimit: 4; fill: rgb(0,0,0); fill-rule: nonzero; opacity: 1;" vector-effect="non-scaling-stroke"  transform=" translate(-13.75, 14.09)" d="M 1.453125 -27.4375 L 1.453125 -27.953125 L 6.78125 -27.953125 L 6.78125 -12.9375 C 7.019531 -14.71875 7.34375 -16.320312 7.75 -17.75 C 8.15625 -19.175781 8.609375 -20.453125 9.109375 -21.578125 C 9.609375 -22.660156 10.234375 -23.703125 10.984375 -24.703125 C 11.742188 -25.710938 12.625 -26.546875 13.625 -27.203125 C 14.632812 -27.859375 15.773438 -28.1875 17.046875 -28.1875 C 19.171875 -28.1875 20.773438 -27.632812 21.859375 -26.53125 C 22.941406 -25.425781 23.6875 -24.023438 24.09375 -22.328125 C 24.5 -20.628906 24.703125 -18.910156 24.703125 -17.171875 L 24.703125 -4.984375 C 24.703125 -3.085938 24.882812 -1.867188 25.25 -1.328125 C 25.625 -0.785156 25.890625 -0.515625 26.046875 -0.515625 L 26.046875 0 L 19.3125 0 L 19.3125 -0.515625 C 19.507812 -0.515625 19.78125 -0.785156 20.125 -1.328125 C 20.46875 -1.867188 20.640625 -3.085938 20.640625 -4.984375 L 20.640625 -17.171875 C 20.640625 -17.867188 20.601562 -18.695312 20.53125 -19.65625 C 20.457031 -20.625 20.289062 -21.597656 20.03125 -22.578125 C 19.78125 -23.566406 19.414062 -24.4375 18.9375 -25.1875 C 18.457031 -25.945312 17.8125 -26.460938 17 -26.734375 C 15.914062 -27.117188 14.878906 -27.019531 13.890625 -26.4375 C 12.898438 -25.863281 12.035156 -25.09375 11.296875 -24.125 C 10.566406 -23.15625 9.988281 -22.226562 9.5625 -21.34375 C 8.71875 -19.53125 8.039062 -17.269531 7.53125 -14.5625 C 7.03125 -11.851562 6.78125 -8.660156 6.78125 -4.984375 C 6.78125 -3.085938 6.960938 -1.867188 7.328125 -1.328125 C 7.703125 -0.785156 7.96875 -0.515625 8.125 -0.515625 L 8.125 0 L 1.453125 0 L 1.453125 -0.515625 C 1.640625 -0.515625 1.90625 -0.785156 2.25 -1.328125 C 2.601562 -1.867188 2.78125 -3.085938 2.78125 -4.984375 L 2.78125 -22.96875 C 2.78125 -24.863281 2.601562 -26.082031 2.25 -26.625 C 1.90625 -27.164062 1.640625 -27.4375 1.453125 -27.4375 Z M 1.453125 -27.4375" stroke-linecap="round" />
</g>
		<g transform="matrix(1.33 0 0 1.33 145.38 34.85)"  >
<path style="stroke: none; stroke-width: 1; stroke-dasharray: none; stroke-linecap: butt; stroke-dashoffset: 0; stroke-linejoin: miter; stroke-miterlimit: 4; fill: rgb(0,0,0); fill-rule: nonzero; opacity: 1;" vector-effect="non-scaling-stroke"  transform=" translate(-15.87, 8.33)" d="M 6.953125 1.453125 L 7.3125 1.859375 C 6.925781 2.160156 6.722656 2.503906 6.703125 2.890625 C 6.679688 3.285156 6.75 3.632812 6.90625 3.9375 C 7.445312 4.988281 8.070312 5.921875 8.78125 6.734375 C 9.5 7.546875 10.265625 8.09375 11.078125 8.375 C 11.890625 8.664062 12.691406 8.519531 13.484375 7.9375 C 14.273438 7.363281 14.984375 6.1875 15.609375 4.40625 L 17.21875 0 L 17.046875 0 L 6.140625 -25.171875 C 5.796875 -25.941406 5.46875 -26.507812 5.15625 -26.875 C 4.851562 -27.25 4.445312 -27.4375 3.9375 -27.4375 L 3.9375 -27.953125 L 11.3125 -27.953125 L 11.3125 -27.4375 C 10.226562 -27.4375 9.992188 -26.738281 10.609375 -25.34375 L 19.25 -5.34375 L 26.5 -24.59375 C 26.851562 -25.476562 26.910156 -26.113281 26.671875 -26.5 C 26.441406 -26.894531 26.160156 -27.148438 25.828125 -27.265625 C 25.503906 -27.378906 25.34375 -27.4375 25.34375 -27.4375 L 25.34375 -27.953125 L 30.28125 -27.953125 L 30.28125 -27.4375 C 29.625 -27.4375 28.972656 -27.164062 28.328125 -26.625 C 27.691406 -26.082031 27.21875 -25.363281 26.90625 -24.46875 L 16.015625 4.53125 C 14.460938 8.851562 12.390625 11.101562 9.796875 11.28125 C 7.210938 11.457031 4.546875 9.765625 1.796875 6.203125 L 1.453125 5.796875 Z M 6.953125 1.453125" stroke-linecap="round" />
</g>
		<g transform="matrix(1.33 0 0 1.33 25.34 -66.11)" clip-path="url(#CLIPPATH_4)"  >
<clipPath id="CLIPPATH_4" >
	<path transform="matrix(1 0 0 1 0 0) translate(-211.67, -120.23)" id="f873054e30" clip-path="url(#undefined)" d="M 211.667969 114.144531 L 213.605469 118.296875 L 217.757812 120.234375 L 213.605469 122.171875 L 211.667969 126.320312 L 209.730469 122.171875 L 205.582031 120.234375 L 209.730469 118.296875 Z M 211.667969 114.144531" stroke-linecap="round" />
</clipPath>
<path style="stroke: none; stroke-width: 1; stroke-dasharray: none; stroke-linecap: butt; stroke-dashoffset: 0; stroke-linejoin: miter; stroke-miterlimit: 4; fill: rgb(50,24,231); fill-rule: nonzero; opacity: 1;" vector-effect="non-scaling-stroke"  transform=" translate(-211.67, -120.23)" d="M 205.582031 114.144531 L 217.757812 114.144531 L 217.757812 126.320312 L 205.582031 126.320312 Z M 205.582031 114.144531" stroke-linecap="round" />
</g>
		<g transform="matrix(1.33 0 0 1.33 -36.66 66.11)" clip-path="url(#CLIPPATH_5)"  >
<clipPath id="CLIPPATH_5" >
	<path transform="matrix(1 0 0 1 0 0) translate(-165.16, -219.39)" clip-path="url(#undefined)" d="M 165.164062 213.304688 L 167.101562 217.453125 L 171.25 219.390625 L 167.101562 221.328125 L 165.164062 225.480469 L 163.226562 221.328125 L 159.078125 219.390625 L 163.226562 217.453125 Z M 165.164062 213.304688" stroke-linecap="round" />
</clipPath>
<path style="stroke: none; stroke-width: 1; stroke-dasharray: none; stroke-linecap: butt; stroke-dashoffset: 0; stroke-linejoin: miter; stroke-miterlimit: 4; fill: rgb(50,24,231); fill-rule: nonzero; opacity: 1;" vector-effect="non-scaling-stroke"  transform=" translate(-165.16, -219.39)" d="M 159.078125 213.304688 L 171.25 213.304688 L 171.25 225.480469 L 159.078125 225.480469 Z M 159.078125 213.304688" stroke-linecap="round" />
</g>
		<g transform="matrix(1.33 0 0 1.33 135.94 -2.08)" clip-path="url(#CLIPPATH_6)"  >
<clipPath id="CLIPPATH_6" >
	<path transform="matrix(1 0 0 1 0 0) translate(-294.62, -168.25)" id="f389263bd7" clip-path="url(#undefined)" d="M 294.621094 162.167969 L 296.554688 166.316406 L 300.707031 168.253906 L 296.554688 170.191406 L 294.621094 174.339844 L 292.683594 170.191406 L 288.53125 168.253906 L 292.683594 166.316406 Z M 294.621094 162.167969" stroke-linecap="round" />
</clipPath>
<path style="stroke: none; stroke-width: 1; stroke-dasharray: none; stroke-linecap: butt; stroke-dashoffset: 0; stroke-linejoin: miter; stroke-miterlimit: 4; fill: rgb(50,24,231); fill-rule: nonzero; opacity: 1;" vector-effect="non-scaling-stroke"  transform=" translate(-294.62, -168.25)" d="M 288.53125 162.167969 L 300.707031 162.167969 L 300.707031 174.339844 L 288.53125 174.339844 Z M 288.53125 162.167969" stroke-linecap="round" />
</g>
</g>
</g>
</svg>